<svg viewBox="0 0 512 512" xmlns="http://www.w3.org/2000/svg" xmlns:xlink="http://www.w3.org/1999/xlink"><linearGradient id="a" gradientTransform="matrix(1 0 0 -1 0 -16402)" gradientUnits="userSpaceOnUse" x1="0" x2="512" y1="-16658" y2="-16658"><stop offset="0" stop-color="#31d8ff"/><stop offset="1" stop-color="#ff80ff"/></linearGradient><path d="m512 256c0 141.386719-114.613281 256-256 256s-256-114.613281-256-256 114.613281-256 256-256 256 114.613281 256 256zm0 0" fill="url(#a)"/><g fill="#fff"><path d="m170.996094 228.652344c-48.050782 0-72.867188-21.285156-94.761719-40.066406-6.289063-5.394532-7.011719-14.863282-1.621094-21.152344 5.394531-6.289063 14.863281-7.011719 21.152344-1.617188 20.542969 17.621094 38.285156 32.835938 75.230469 32.835938 36.949218 0 54.691406-15.214844 75.234375-32.835938 21.898437-18.78125 46.714843-40.070312 94.769531-40.070312 48.050781 0 72.871094 21.289062 94.765625 40.070312 6.289063 5.394532 7.011719 14.863282 1.621094 21.148438-5.394531 6.292968-14.863281 7.015625-21.152344 1.621094-20.542969-17.621094-38.285156-32.839844-75.234375-32.839844s-54.691406 15.21875-75.234375 32.839844c-21.898437 18.78125-46.714844 40.066406-94.769531 40.066406zm0 0"/><path d="m170.996094 307.453125c-48.050782 0-72.867188-21.285156-94.761719-40.066406-6.289063-5.394531-7.011719-14.863281-1.617187-21.152344 5.394531-6.289063 14.863281-7.011719 21.148437-1.617187 20.542969 17.621093 38.285156 32.835937 75.230469 32.835937 36.949218 0 54.691406-15.21875 75.234375-32.839844 21.898437-18.777343 46.714843-40.066406 94.769531-40.066406 48.050781 0 72.867188 21.285156 94.761719 40.066406 6.289062 5.394531 7.015625 14.863281 1.621093 21.152344-5.394531 6.285156-14.859374 7.015625-21.148437 1.621094-20.546875-17.621094-38.289063-32.839844-75.234375-32.839844-36.949219 0-54.691406 15.21875-75.234375 32.839844-21.898437 18.78125-46.714844 40.066406-94.769531 40.066406zm0 0"/><path d="m170.996094 386.253906c-48.050782 0-72.867188-21.285156-94.761719-40.070312-6.289063-5.394532-7.011719-14.863282-1.621094-21.148438 5.398438-6.289062 14.867188-7.015625 21.152344-1.621094 20.542969 17.621094 38.285156 32.839844 75.230469 32.839844 36.949218 0 54.691406-15.21875 75.234375-32.839844 21.898437-18.777343 46.714843-40.066406 94.769531-40.066406 48.050781 0 72.867188 21.285156 94.765625 40.066406 6.289063 5.394532 7.011719 14.863282 1.621094 21.152344-5.394531 6.285156-14.863281 7.011719-21.152344 1.617188-20.542969-17.617188-38.289063-32.835938-75.234375-32.835938-36.949219 0-54.691406 15.21875-75.234375 32.839844-21.898437 18.78125-46.714844 40.066406-94.769531 40.066406zm0 0"/></g></svg>